<svg width="23" height="19" viewBox="0 0 23 19" fill="none" xmlns="http://www.w3.org/2000/svg">
<path fill-rule="evenodd" clip-rule="evenodd" d="M19.7803 0.46875H3.81055C2.16055 0.46875 0.830566 1.81875 0.830566 3.46875L0.820312 15.4487C0.820312 17.0987 2.16055 18.4385 3.81055 18.4385H19.7803C21.4303 18.4385 22.7803 17.0987 22.7803 15.4487V3.46875C22.7803 1.81875 21.4303 0.46875 19.7803 0.46875ZM5.29053 6.46875C4.82053 6.17875 4.67068 5.56838 4.95068 5.08838C5.24068 4.61838 5.85031 4.46854 6.32031 4.74854L11.7705 8.02832L17.4507 4.6084C17.9207 4.3284 18.5403 4.47873 18.8203 4.94873C19.1003 5.41873 18.9505 6.03836 18.4805 6.31836L11.8105 10.3687L11.8003 10.3887L5.29053 6.46875Z" fill="white"/>
</svg>
