<svg width="19" height="19" viewBox="0 0 19 19" fill="none" xmlns="http://www.w3.org/2000/svg">
<path fill-rule="evenodd" clip-rule="evenodd" d="M4.42871 8.56152C5.85871 11.3815 8.1783 13.6916 11.0083 15.1416L13.1987 12.9414C13.4687 12.6714 13.8687 12.5817 14.2188 12.7017C15.3387 13.0717 16.5483 13.2715 17.7783 13.2715C18.3283 13.2715 18.7783 13.7215 18.7783 14.2715V17.7515C18.7783 18.3015 18.3283 18.7515 17.7783 18.7515C8.40832 18.7515 0.808594 11.1512 0.808594 1.78125C0.808594 1.23125 1.25859 0.78125 1.80859 0.78125H5.29834C5.84834 0.78125 6.29834 1.23125 6.29834 1.78125C6.29834 3.03125 6.49865 4.23131 6.86865 5.34131C6.97865 5.69131 6.89865 6.08133 6.61865 6.36133L4.42871 8.56152Z" fill="white"/>
</svg>
