<svg width="56" height="39" viewBox="0 0 56 39" fill="none" xmlns="http://www.w3.org/2000/svg">
<path fill-rule="evenodd" clip-rule="evenodd" d="M50.459 1.70312C50.799 1.00313 50.3191 0.203125 49.5691 0.203125H39.4089L31.5391 15.6025V37.6025C31.5391 38.2025 31.9791 38.6025 32.5391 38.6025H54.1389C54.6889 38.6025 55.1389 38.2025 55.1389 37.6025V16.6025C55.1389 16.0025 54.6889 15.6025 54.1389 15.6025H43.3391L50.459 1.70312Z" fill="black"/>
<path fill-rule="evenodd" clip-rule="evenodd" d="M18.9902 1.70312C19.3302 1.00313 18.8503 0.203125 18.1003 0.203125H7.94019L0.0703125 15.6025V37.6025C0.0703125 38.2025 0.520312 38.6025 1.07031 38.6025H22.6702C23.2202 38.6025 23.6702 38.2025 23.6702 37.6025V16.6025C23.6702 16.0025 23.2202 15.6025 22.6702 15.6025H11.8704L18.9902 1.70312Z" fill="black"/>
</svg>
